<mxfile host="app.diagrams.net" modified="2023-10-01T23:24:07.418Z" agent="Mozilla/5.0 (Windows NT 10.0; Win64; x64) AppleWebKit/537.36 (KHTML, like Gecko) Chrome/113.0.0.0 Safari/537.36" etag="J9SjrF4wqP5Kw3gIGRHH" version="22.0.0" type="github">
  <diagram name="Página-1" id="Iu1hGT1gTBS3_60JgMqf">
    <mxGraphModel dx="1183" dy="549" grid="1" gridSize="10" guides="1" tooltips="1" connect="1" arrows="1" fold="1" page="1" pageScale="1" pageWidth="827" pageHeight="1169" math="0" shadow="0">
      <root>
        <mxCell id="0" />
        <mxCell id="1" parent="0" />
        <mxCell id="n0VYCAZRKLvNZl6ZHIPF-22" style="rounded=0;orthogonalLoop=1;jettySize=auto;html=1;exitX=0.5;exitY=0.5;exitDx=0;exitDy=0;exitPerimeter=0;" edge="1" parent="1" source="A82MeaCJVfevSgUQ1sRY-1" target="A82MeaCJVfevSgUQ1sRY-3">
          <mxGeometry relative="1" as="geometry" />
        </mxCell>
        <mxCell id="n0VYCAZRKLvNZl6ZHIPF-25" style="rounded=0;orthogonalLoop=1;jettySize=auto;html=1;exitX=0.5;exitY=0.5;exitDx=0;exitDy=0;exitPerimeter=0;entryX=1;entryY=0.5;entryDx=0;entryDy=0;" edge="1" parent="1" source="A82MeaCJVfevSgUQ1sRY-1" target="n0VYCAZRKLvNZl6ZHIPF-18">
          <mxGeometry relative="1" as="geometry" />
        </mxCell>
        <mxCell id="n0VYCAZRKLvNZl6ZHIPF-26" style="rounded=0;orthogonalLoop=1;jettySize=auto;html=1;exitX=0.5;exitY=0.5;exitDx=0;exitDy=0;exitPerimeter=0;entryX=1;entryY=0.5;entryDx=0;entryDy=0;" edge="1" parent="1" source="A82MeaCJVfevSgUQ1sRY-1" target="n0VYCAZRKLvNZl6ZHIPF-17">
          <mxGeometry relative="1" as="geometry" />
        </mxCell>
        <mxCell id="n0VYCAZRKLvNZl6ZHIPF-27" style="rounded=0;orthogonalLoop=1;jettySize=auto;html=1;exitX=0.5;exitY=0.5;exitDx=0;exitDy=0;exitPerimeter=0;entryX=1;entryY=0.5;entryDx=0;entryDy=0;" edge="1" parent="1" source="A82MeaCJVfevSgUQ1sRY-1" target="n0VYCAZRKLvNZl6ZHIPF-9">
          <mxGeometry relative="1" as="geometry" />
        </mxCell>
        <mxCell id="A82MeaCJVfevSgUQ1sRY-1" value="Cliente" style="shape=umlActor;verticalLabelPosition=bottom;verticalAlign=top;html=1;" parent="1" vertex="1">
          <mxGeometry x="780" y="295" width="30" height="60" as="geometry" />
        </mxCell>
        <mxCell id="n0VYCAZRKLvNZl6ZHIPF-28" style="rounded=0;orthogonalLoop=1;jettySize=auto;html=1;exitX=0.5;exitY=0.5;exitDx=0;exitDy=0;exitPerimeter=0;entryX=0;entryY=0;entryDx=0;entryDy=0;" edge="1" parent="1" source="A82MeaCJVfevSgUQ1sRY-2" target="A82MeaCJVfevSgUQ1sRY-3">
          <mxGeometry relative="1" as="geometry" />
        </mxCell>
        <mxCell id="n0VYCAZRKLvNZl6ZHIPF-29" style="rounded=0;orthogonalLoop=1;jettySize=auto;html=1;exitX=0.5;exitY=0.5;exitDx=0;exitDy=0;exitPerimeter=0;" edge="1" parent="1" source="A82MeaCJVfevSgUQ1sRY-2" target="A82MeaCJVfevSgUQ1sRY-5">
          <mxGeometry relative="1" as="geometry" />
        </mxCell>
        <mxCell id="n0VYCAZRKLvNZl6ZHIPF-30" style="rounded=0;orthogonalLoop=1;jettySize=auto;html=1;exitX=0.5;exitY=0.5;exitDx=0;exitDy=0;exitPerimeter=0;entryX=0;entryY=0.5;entryDx=0;entryDy=0;" edge="1" parent="1" source="A82MeaCJVfevSgUQ1sRY-2" target="n0VYCAZRKLvNZl6ZHIPF-10">
          <mxGeometry relative="1" as="geometry" />
        </mxCell>
        <mxCell id="n0VYCAZRKLvNZl6ZHIPF-31" style="rounded=0;orthogonalLoop=1;jettySize=auto;html=1;exitX=0.5;exitY=0.5;exitDx=0;exitDy=0;exitPerimeter=0;entryX=0;entryY=0.5;entryDx=0;entryDy=0;" edge="1" parent="1" source="A82MeaCJVfevSgUQ1sRY-2" target="n0VYCAZRKLvNZl6ZHIPF-11">
          <mxGeometry relative="1" as="geometry" />
        </mxCell>
        <mxCell id="A82MeaCJVfevSgUQ1sRY-2" value="Profissional" style="shape=umlActor;verticalLabelPosition=bottom;verticalAlign=top;html=1;" parent="1" vertex="1">
          <mxGeometry x="60" y="170" width="30" height="60" as="geometry" />
        </mxCell>
        <mxCell id="A82MeaCJVfevSgUQ1sRY-3" value="Efetuar login" style="ellipse;whiteSpace=wrap;html=1;" parent="1" vertex="1">
          <mxGeometry x="450" y="210" width="140" height="70" as="geometry" />
        </mxCell>
        <mxCell id="A82MeaCJVfevSgUQ1sRY-5" value="Verificar histórico de consulta" style="ellipse;whiteSpace=wrap;html=1;" parent="1" vertex="1">
          <mxGeometry x="360" y="140" width="150" height="70" as="geometry" />
        </mxCell>
        <mxCell id="n0VYCAZRKLvNZl6ZHIPF-21" style="rounded=0;orthogonalLoop=1;jettySize=auto;html=1;exitX=0.5;exitY=0.5;exitDx=0;exitDy=0;exitPerimeter=0;entryX=0;entryY=0.5;entryDx=0;entryDy=0;" edge="1" parent="1" source="n0VYCAZRKLvNZl6ZHIPF-1" target="n0VYCAZRKLvNZl6ZHIPF-19">
          <mxGeometry relative="1" as="geometry" />
        </mxCell>
        <mxCell id="n0VYCAZRKLvNZl6ZHIPF-23" style="rounded=0;orthogonalLoop=1;jettySize=auto;html=1;exitX=0.5;exitY=0.5;exitDx=0;exitDy=0;exitPerimeter=0;entryX=0.09;entryY=0.857;entryDx=0;entryDy=0;entryPerimeter=0;" edge="1" parent="1" source="n0VYCAZRKLvNZl6ZHIPF-1" target="A82MeaCJVfevSgUQ1sRY-3">
          <mxGeometry relative="1" as="geometry" />
        </mxCell>
        <mxCell id="n0VYCAZRKLvNZl6ZHIPF-33" style="rounded=0;orthogonalLoop=1;jettySize=auto;html=1;exitX=0.5;exitY=0.5;exitDx=0;exitDy=0;exitPerimeter=0;entryX=0;entryY=0.5;entryDx=0;entryDy=0;" edge="1" parent="1" source="n0VYCAZRKLvNZl6ZHIPF-1" target="n0VYCAZRKLvNZl6ZHIPF-20">
          <mxGeometry relative="1" as="geometry" />
        </mxCell>
        <mxCell id="n0VYCAZRKLvNZl6ZHIPF-35" style="rounded=0;orthogonalLoop=1;jettySize=auto;html=1;exitX=0.5;exitY=0.5;exitDx=0;exitDy=0;exitPerimeter=0;entryX=0;entryY=0.5;entryDx=0;entryDy=0;" edge="1" parent="1" source="n0VYCAZRKLvNZl6ZHIPF-1" target="n0VYCAZRKLvNZl6ZHIPF-14">
          <mxGeometry relative="1" as="geometry" />
        </mxCell>
        <mxCell id="n0VYCAZRKLvNZl6ZHIPF-36" style="rounded=0;orthogonalLoop=1;jettySize=auto;html=1;exitX=0.5;exitY=0.5;exitDx=0;exitDy=0;exitPerimeter=0;entryX=0;entryY=0.5;entryDx=0;entryDy=0;" edge="1" parent="1" source="n0VYCAZRKLvNZl6ZHIPF-1" target="n0VYCAZRKLvNZl6ZHIPF-15">
          <mxGeometry relative="1" as="geometry" />
        </mxCell>
        <mxCell id="n0VYCAZRKLvNZl6ZHIPF-37" style="rounded=0;orthogonalLoop=1;jettySize=auto;html=1;exitX=0.5;exitY=0.5;exitDx=0;exitDy=0;exitPerimeter=0;" edge="1" parent="1" source="n0VYCAZRKLvNZl6ZHIPF-1" target="n0VYCAZRKLvNZl6ZHIPF-16">
          <mxGeometry relative="1" as="geometry" />
        </mxCell>
        <mxCell id="n0VYCAZRKLvNZl6ZHIPF-1" value="Clinica" style="shape=umlActor;verticalLabelPosition=bottom;verticalAlign=top;html=1;" vertex="1" parent="1">
          <mxGeometry x="40" y="350" width="30" height="60" as="geometry" />
        </mxCell>
        <mxCell id="n0VYCAZRKLvNZl6ZHIPF-9" value="Realizar agendamento" style="ellipse;whiteSpace=wrap;html=1;" vertex="1" parent="1">
          <mxGeometry x="500" y="540" width="150" height="70" as="geometry" />
        </mxCell>
        <mxCell id="n0VYCAZRKLvNZl6ZHIPF-10" value="Alterar agenda" style="ellipse;whiteSpace=wrap;html=1;" vertex="1" parent="1">
          <mxGeometry x="310" y="50" width="150" height="70" as="geometry" />
        </mxCell>
        <mxCell id="n0VYCAZRKLvNZl6ZHIPF-11" value="Cadastrar agenda" style="ellipse;whiteSpace=wrap;html=1;" vertex="1" parent="1">
          <mxGeometry x="130" y="10" width="150" height="70" as="geometry" />
        </mxCell>
        <mxCell id="n0VYCAZRKLvNZl6ZHIPF-14" value="Cadastrar serviço" style="ellipse;whiteSpace=wrap;html=1;" vertex="1" parent="1">
          <mxGeometry x="300" y="590" width="150" height="70" as="geometry" />
        </mxCell>
        <mxCell id="n0VYCAZRKLvNZl6ZHIPF-15" value="Alterar serviço" style="ellipse;whiteSpace=wrap;html=1;" vertex="1" parent="1">
          <mxGeometry x="270" y="515" width="150" height="70" as="geometry" />
        </mxCell>
        <mxCell id="n0VYCAZRKLvNZl6ZHIPF-16" value="Excluir serviço" style="ellipse;whiteSpace=wrap;html=1;" vertex="1" parent="1">
          <mxGeometry x="60" y="540" width="150" height="70" as="geometry" />
        </mxCell>
        <mxCell id="n0VYCAZRKLvNZl6ZHIPF-17" value="Selecionar serviço" style="ellipse;whiteSpace=wrap;html=1;" vertex="1" parent="1">
          <mxGeometry x="520" y="420" width="150" height="70" as="geometry" />
        </mxCell>
        <mxCell id="n0VYCAZRKLvNZl6ZHIPF-18" value="Buscar serviço" style="ellipse;whiteSpace=wrap;html=1;" vertex="1" parent="1">
          <mxGeometry x="470" y="330" width="150" height="70" as="geometry" />
        </mxCell>
        <mxCell id="n0VYCAZRKLvNZl6ZHIPF-19" value="Cadastrar profissional" style="ellipse;whiteSpace=wrap;html=1;" vertex="1" parent="1">
          <mxGeometry x="339" y="380" width="150" height="70" as="geometry" />
        </mxCell>
        <mxCell id="n0VYCAZRKLvNZl6ZHIPF-20" value="Alterar profissional" style="ellipse;whiteSpace=wrap;html=1;" vertex="1" parent="1">
          <mxGeometry x="200" y="430" width="150" height="70" as="geometry" />
        </mxCell>
      </root>
    </mxGraphModel>
  </diagram>
</mxfile>
